<svg width="32" height="38" viewBox="0 0 32 38" fill="none" xmlns="http://www.w3.org/2000/svg">
<g clip-path="url(#clip0_18_75)">
<path d="M30.5986 13.0222C28.0467 14.572 26.4704 17.2288 26.4704 20.1808C26.4704 23.5019 28.497 26.5277 31.5744 27.7823C30.9739 29.7012 30.0732 31.4724 28.9474 33.096C27.2961 35.3838 25.5697 37.7455 23.0178 37.7455C20.4658 37.7455 19.7152 36.2695 16.7129 36.2695C13.7856 36.2695 12.7348 37.8193 10.333 37.8193C7.9311 37.8193 6.27982 35.679 4.40337 33.0222C1.92645 29.3322 0.500351 25.0517 0.425293 20.5498C0.425293 13.2436 5.22901 9.3321 10.0327 9.3321C12.5847 9.3321 14.6863 10.9557 16.2625 10.9557C17.7637 10.9557 20.1656 9.2583 23.0178 9.2583C26.0201 9.1845 28.8723 10.5867 30.5986 13.0222ZM21.6667 6.15866C22.9427 4.68264 23.6182 2.83762 23.6933 0.918796C23.6933 0.697393 23.6933 0.402189 23.6182 0.180786C21.4415 0.402189 19.415 1.4354 17.9889 3.05902C16.7129 4.46124 15.9623 6.23246 15.8873 8.15129C15.8873 8.37269 15.8873 8.59409 15.9623 8.8155C16.1124 8.8155 16.3376 8.8893 16.4877 8.8893C18.5143 8.7417 20.3907 7.70848 21.6667 6.15866Z" fill="black"/>
</g>
<defs>
<clipPath id="clip0_18_75">
<rect width="31.1491" height="37.6385" fill="white" transform="translate(0.425293 0.180786)"/>
</clipPath>
</defs>
</svg>
