<svg width="25" height="25" viewBox="0 0 25 25" fill="none" xmlns="http://www.w3.org/2000/svg">
<path d="M4.00472 12.5033C4.00292 7.80326 7.80147 4.0018 12.5015 4C17.2015 3.9982 21.0029 7.79675 21.0047 12.4967C21.0065 17.1967 17.208 20.9982 12.508 21C7.80798 21.0018 4.00652 17.2033 4.00472 12.5033ZM20.0047 12.4971C20.0031 8.34713 16.6518 4.99841 12.5018 5C8.35185 5.00159 5.00313 8.35287 5.00472 12.5029C5.00631 16.6529 8.35759 20.0016 12.5076 20C16.6576 19.9984 20.0063 16.6471 20.0047 12.4971Z" fill="#555555"/>
<path d="M7.80488 12.5018L12.653 7.64994L13.3533 8.34967L9.20488 12.5013L13.3565 16.6497L12.6567 17.3499L7.80488 12.5018Z" fill="#555555"/>
<path d="M17.0044 11.9983L17.0048 12.9983L8.50478 13.0015L8.5044 12.0015L17.0044 11.9983Z" fill="#555555"/>
</svg>
