<svg width="30" height="30" viewBox="0 0 30 30" fill="none" xmlns="http://www.w3.org/2000/svg">
<path d="M15 5C17.75 5 20 7.25 20 10C20 12.625 17.375 16.875 15 19.875C12.625 16.75 10 12.625 10 10C10 7.25 12.25 5 15 5ZM15 2.5C10.875 2.5 7.5 5.875 7.5 10C7.5 15.625 15 23.75 15 23.75C15 23.75 22.5 15.5 22.5 10C22.5 5.875 19.125 2.5 15 2.5ZM15 7.5C13.625 7.5 12.5 8.625 12.5 10C12.5 11.375 13.625 12.5 15 12.5C16.375 12.5 17.5 11.375 17.5 10C17.5 8.625 16.375 7.5 15 7.5ZM25 23.75C25 26.5 20.5 28.75 15 28.75C9.5 28.75 5 26.5 5 23.75C5 22.125 6.5 20.75 8.875 19.75L9.625 20.875C8.375 21.5 7.5 22.25 7.5 23.125C7.5 24.875 10.875 26.25 15 26.25C19.125 26.25 22.5 24.875 22.5 23.125C22.5 22.25 21.625 21.5 20.25 20.875L21 19.75C23.5 20.75 25 22.125 25 23.75Z" fill="#979797" fill-opacity="0.466667"/>
</svg>
