<svg width="37" height="38" viewBox="0 0 37 38" fill="none" xmlns="http://www.w3.org/2000/svg">
<g clip-path="url(#clip0_18_70)">
<path d="M37 19C37 8.50738 28.7165 0 18.5 0C8.2835 0 0 8.50738 0 19C0 28.4826 6.76417 36.3434 15.6096 37.7702V24.4935H10.9111V19H15.6096V14.8131C15.6096 10.0518 18.3725 7.41991 22.5975 7.41991C24.6216 7.41991 26.7393 7.79131 26.7393 7.79131V12.4672H24.4056C22.1084 12.4672 21.3904 13.9314 21.3904 15.4357V19H26.5207L25.7012 24.4935H21.3904V37.7702C30.2358 36.3461 37 28.4853 37 19Z" fill="#1977F3"/>
<path d="M25.7012 24.4935L26.5208 19H21.3904V15.4357C21.3904 13.9341 22.1058 12.4672 24.4056 12.4672H26.7393V7.79132C26.7393 7.79132 24.6216 7.41992 22.5975 7.41992C18.3725 7.41992 15.6096 10.0491 15.6096 14.8131V19H10.9111V24.4935H15.6096V37.7702C16.5514 37.9225 17.5166 38 18.5 38C19.4834 38 20.4486 37.9199 21.3904 37.7702V24.4935H25.7012Z" fill="#FEFEFE"/>
</g>
<defs>
<clipPath id="clip0_18_70">
<rect width="37" height="38" fill="white"/>
</clipPath>
</defs>
</svg>
