<svg width="24" height="24" viewBox="0 0 24 24" fill="none" xmlns="http://www.w3.org/2000/svg">
<g clip-path="url(#clip0_1_56)">
<path d="M21.6658 11.5388L12.0763 1.94933C11.9565 1.83026 11.7945 1.76343 11.6256 1.76343C11.4567 1.76343 11.2947 1.83026 11.1749 1.94933L1.58539 11.5388C1.48066 11.6611 1.42593 11.8184 1.43215 11.9793C1.43836 12.1402 1.50506 12.2928 1.61892 12.4067C1.73277 12.5206 1.8854 12.5872 2.0463 12.5935C2.20719 12.5997 2.36451 12.545 2.48681 12.4402L11.6224 3.30464L20.758 12.4466C20.8803 12.5513 21.0376 12.6061 21.1985 12.5999C21.3594 12.5936 21.512 12.5269 21.6258 12.4131C21.7397 12.2992 21.8064 12.1466 21.8126 11.9857C21.8188 11.8248 21.7641 11.6675 21.6594 11.5452L21.6658 11.5388Z" fill="#979797"/>
<path d="M18.0154 20.9429H14.8189V14.5499H8.42589V20.9429H5.2294V11.9927L3.95081 13.2713V20.9429C3.95081 21.282 4.08551 21.6072 4.3253 21.847C4.56508 22.0868 4.8903 22.2215 5.2294 22.2215H9.70449V15.8285H13.5403V22.2215H18.0154C18.3545 22.2215 18.6797 22.0868 18.9195 21.847C19.1593 21.6072 19.294 21.282 19.294 20.9429V13.1179L18.0154 11.8393V20.9429Z" fill="#979797"/>
</g>
<defs>
<clipPath id="clip0_1_56">
<rect width="23.0147" height="23.0147" fill="white" transform="translate(0.115021 0.485352)"/>
</clipPath>
</defs>
</svg>
