<svg width="24" height="24" viewBox="0 0 24 24" fill="none" xmlns="http://www.w3.org/2000/svg">
<path d="M10.6634 21.5343V20.5753C8.66561 20.3516 6.95133 19.5246 5.52058 18.0945C4.08983 16.6644 3.2629 14.9501 3.03979 12.9517H2.08084C1.80914 12.9517 1.58155 12.8596 1.39807 12.6755C1.21459 12.4914 1.12253 12.2638 1.12189 11.9927C1.12125 11.7217 1.21331 11.4941 1.39807 11.31C1.58282 11.1258 1.81041 11.0338 2.08084 11.0338H3.03979C3.26354 9.03597 4.09079 7.32169 5.52154 5.89094C6.95229 4.46019 8.66625 3.63326 10.6634 3.41015V2.4512C10.6634 2.1795 10.7555 1.95191 10.9396 1.76843C11.1237 1.58495 11.3513 1.49289 11.6224 1.49225C11.8934 1.49161 12.1213 1.58367 12.3061 1.76843C12.4909 1.95319 12.5826 2.18078 12.5813 2.4512V3.41015C14.5791 3.6339 16.2934 4.46115 17.7241 5.8919C19.1549 7.32265 19.9818 9.03661 20.2049 11.0338H21.1639C21.4356 11.0338 21.6635 11.1258 21.8476 11.31C22.0317 11.4941 22.1235 11.7217 22.1228 11.9927C22.1222 12.2638 22.0305 12.4917 21.8476 12.6765C21.6648 12.8612 21.4369 12.953 21.1639 12.9517H20.2049C19.9812 14.9495 19.1543 16.6638 17.7241 18.0945C16.294 19.5253 14.5798 20.3522 12.5813 20.5753V21.5343C12.5813 21.806 12.4893 22.0339 12.3051 22.218C12.121 22.4021 11.8934 22.4938 11.6224 22.4932C11.3513 22.4926 11.1237 22.4008 10.9396 22.218C10.7555 22.0351 10.6634 21.8072 10.6634 21.5343ZM11.6224 18.7054C13.4763 18.7054 15.0586 18.0501 16.3692 16.7395C17.6797 15.429 18.335 13.8467 18.335 11.9927C18.335 10.1388 17.6797 8.5565 16.3692 7.24594C15.0586 5.93538 13.4763 5.28009 11.6224 5.28009C9.7684 5.28009 8.18614 5.93538 6.87558 7.24594C5.56501 8.5565 4.90973 10.1388 4.90973 11.9927C4.90973 13.8467 5.56501 15.429 6.87558 16.7395C8.18614 18.0501 9.7684 18.7054 11.6224 18.7054ZM11.6224 15.8285C10.5675 15.8285 9.66452 15.4529 8.91334 14.7018C8.16216 13.9506 7.78658 13.0476 7.78658 11.9927C7.78658 10.9379 8.16216 10.0349 8.91334 9.2837C9.66452 8.53253 10.5675 8.15694 11.6224 8.15694C12.6772 8.15694 13.5802 8.53253 14.3314 9.2837C15.0826 10.0349 15.4582 10.9379 15.4582 11.9927C15.4582 13.0476 15.0826 13.9506 14.3314 14.7018C13.5802 15.4529 12.6772 15.8285 11.6224 15.8285ZM11.6224 13.9106C12.1498 13.9106 12.6015 13.723 12.9774 13.3477C13.3533 12.9725 13.5409 12.5208 13.5403 11.9927C13.5396 11.4647 13.352 11.0133 12.9774 10.6387C12.6027 10.2641 12.1511 10.0761 11.6224 10.0748C11.0937 10.0736 10.6423 10.2615 10.2683 10.6387C9.89434 11.0159 9.70639 11.4672 9.70447 11.9927C9.70255 12.5182 9.89051 12.9699 10.2683 13.3477C10.6462 13.7255 11.0975 13.9132 11.6224 13.9106Z" fill="#979797"/>
</svg>
