<svg width="24" height="24" viewBox="0 0 24 24" fill="none" xmlns="http://www.w3.org/2000/svg">
<path d="M20.7799 13.065C20.8304 13.2227 20.9414 13.354 21.0886 13.4299C21.2358 13.5059 21.4071 13.5203 21.5649 13.47C21.8899 13.365 22.0749 13.015 21.9699 12.685L21.9694 12.6835C21.9249 12.55 19.4204 5 11.9994 5C4.57991 5 2.07491 12.55 2.03091 12.684L2.03041 12.685C1.92541 13.015 2.10541 13.365 2.43541 13.47C2.76541 13.575 3.11541 13.395 3.22041 13.065C3.30991 12.785 5.47491 6.25 11.9999 6.25C18.5249 6.25 20.6899 12.785 20.7799 13.065ZM11.9999 18C13.1934 18 14.338 17.5259 15.1819 16.682C16.0258 15.8381 16.4999 14.6935 16.4999 13.5C16.4999 12.3065 16.0258 11.1619 15.1819 10.318C14.338 9.47411 13.1934 9 11.9999 9C10.8064 9 9.66184 9.47411 8.81793 10.318C7.97401 11.1619 7.49991 12.3065 7.49991 13.5C7.49991 14.6935 7.97401 15.8381 8.81793 16.682C9.66184 17.5259 10.8064 18 11.9999 18Z" fill="#7A7A7A"/>
</svg>
