<svg width="34" height="26" viewBox="0 0 34 26" fill="none" xmlns="http://www.w3.org/2000/svg">
<path d="M10.4798 0C7.70038 0 5.0348 1.10412 3.06946 3.06946C1.10412 5.0348 0 7.70038 0 10.4798C0 13.2592 1.10412 15.9248 3.06946 17.8901C5.0348 19.8555 7.70038 20.9596 10.4798 20.9596C13.2592 20.9596 15.9248 19.8555 17.8901 17.8901C19.8555 15.9248 20.9596 13.2592 20.9596 10.4798C20.9596 7.70038 19.8555 5.0348 17.8901 3.06946C15.9248 1.10412 13.2592 0 10.4798 0ZM1.39896 10.4791C1.38394 9.27693 1.60775 8.08377 2.05741 6.96878C2.50706 5.85379 3.17361 4.83917 4.0184 3.98376C4.86319 3.12836 5.86941 2.44919 6.97869 1.98564C8.08798 1.5221 9.27826 1.2834 10.4805 1.2834C11.6827 1.2834 12.873 1.5221 13.9823 1.98564C15.0916 2.44919 16.0978 3.12836 16.9426 3.98376C17.7874 4.83917 18.4539 5.85379 18.9036 6.96878C19.3532 8.08377 19.5771 9.27693 19.562 10.4791C19.562 12.8878 18.6052 15.198 16.9019 16.9012C15.1987 18.6045 12.8886 19.5613 10.4798 19.5613C8.07103 19.5613 5.76092 18.6045 4.05767 16.9012C2.35442 15.198 1.39896 12.8878 1.39896 10.4791Z" fill="#979797"/>
<path d="M19.6046 18.122C19.5084 18.0196 19.3927 17.9376 19.2642 17.8808C19.1358 17.824 18.9972 17.7936 18.8568 17.7914C18.7164 17.7891 18.577 17.8152 18.4468 17.8679C18.3166 17.9206 18.1984 17.999 18.099 18.0983C17.9997 18.1976 17.9214 18.3158 17.8687 18.446C17.8159 18.5762 17.7899 18.7156 17.7921 18.856C17.7943 18.9965 17.8247 19.135 17.8815 19.2635C17.9383 19.3919 18.0203 19.5077 18.1227 19.6038L23.7115 25.1925C23.8076 25.2949 23.9233 25.377 24.0518 25.4337C24.1802 25.4905 24.3188 25.5209 24.4592 25.5232C24.5997 25.5254 24.7391 25.4993 24.8693 25.4466C24.9994 25.3939 25.1177 25.3155 25.217 25.2162C25.3163 25.1169 25.3947 24.9987 25.4474 24.8685C25.5001 24.7383 25.5261 24.5989 25.5239 24.4585C25.5217 24.318 25.4913 24.1795 25.4345 24.051C25.3777 23.9226 25.2957 23.8068 25.1933 23.7107L19.6046 18.122ZM29.0707 15.2745L25.6721 11.152C25.2528 10.6434 25.6523 9.91663 26.3521 9.91663H33.1493C33.8491 9.91663 34.2486 10.6434 33.8293 11.1534L30.4293 15.2745C30.3446 15.3713 30.2402 15.4489 30.123 15.5021C30.0059 15.5553 29.8787 15.5828 29.75 15.5828C29.6214 15.5828 29.4942 15.5553 29.377 15.5021C29.2599 15.4489 29.1554 15.3713 29.0707 15.2745Z" fill="#979797"/>
</svg>
