<svg width="34" height="34" viewBox="0 0 34 34" fill="none" xmlns="http://www.w3.org/2000/svg">
<path d="M9.52 23.5733C9.8807 23.4681 10.2684 23.5105 10.5979 23.6912C10.9273 23.8718 11.1715 24.176 11.2767 24.5366C11.3819 24.8973 11.3395 25.2851 11.1588 25.6145C10.9782 25.9439 10.674 26.1881 10.3133 26.2933C9.60501 26.5001 9.09501 26.7183 8.76776 26.9166C9.10492 27.1192 9.63759 27.3459 10.3771 27.557C12.0133 28.0245 14.3551 28.3333 17 28.3333C19.6449 28.3333 21.9867 28.0245 23.6229 27.557C24.3638 27.3459 24.8951 27.1192 25.2323 26.9166C24.9064 26.7183 24.3964 26.5001 23.6881 26.2933C23.3331 26.1835 23.0354 25.9385 22.8593 25.6113C22.6832 25.2841 22.6427 24.9007 22.7466 24.5439C22.8505 24.1871 23.0904 23.8854 23.4147 23.7039C23.7389 23.5223 24.1215 23.4754 24.48 23.5733C25.4263 23.8496 26.2933 24.2037 26.9592 24.6585C27.5754 25.0821 28.3333 25.8201 28.3333 26.9166C28.3333 28.0259 27.557 28.7696 26.9308 29.1932C26.2537 29.6494 25.3683 30.005 24.4007 30.2812C22.4485 30.8408 19.8333 31.1666 17 31.1666C14.1667 31.1666 11.5515 30.8408 9.59934 30.2812C8.63176 30.005 7.74634 29.6494 7.06917 29.1932C6.443 28.7682 5.66667 28.0259 5.66667 26.9166C5.66667 25.8201 6.42459 25.0821 7.04084 24.6585C7.70667 24.2037 8.57367 23.8496 9.52 23.5733ZM17 2.83331C19.8179 2.83331 22.5204 3.95273 24.513 5.9453C26.5056 7.93788 27.625 10.6404 27.625 13.4583C27.625 17.0963 25.6417 20.0543 23.5875 22.1566C22.7709 22.9839 21.8934 23.7487 20.9624 24.4446C20.1209 25.0764 18.1971 26.2607 18.1971 26.2607C17.8322 26.4681 17.4197 26.5772 17 26.5772C16.5803 26.5772 16.1678 26.4681 15.8029 26.2607C14.8482 25.7071 13.925 25.1008 13.0376 24.4446C12.1052 23.7504 11.2276 22.9855 10.4125 22.1566C8.35834 20.0543 6.37501 17.0963 6.37501 13.4583C6.37501 10.6404 7.49442 7.93788 9.487 5.9453C11.4796 3.95273 14.1821 2.83331 17 2.83331ZM17 5.66665C14.9335 5.66665 12.9517 6.48755 11.4905 7.94877C10.0292 9.40999 9.20834 11.3918 9.20834 13.4583C9.20834 16.031 10.6193 18.3146 12.4383 20.1733C13.8068 21.573 15.3142 22.6383 16.3583 23.2928L17 23.681L17.6418 23.2928C18.6844 22.6383 20.1932 21.573 21.5617 20.1747C23.3807 18.3146 24.7917 16.0324 24.7917 13.4583C24.7917 11.3918 23.9708 9.40999 22.5095 7.94877C21.0483 6.48755 19.0665 5.66665 17 5.66665ZM17 9.20831C17.5581 9.20831 18.1108 9.31824 18.6264 9.53183C19.142 9.74541 19.6106 10.0585 20.0052 10.4531C20.3999 10.8478 20.7129 11.3163 20.9265 11.8319C21.1401 12.3475 21.25 12.9002 21.25 13.4583C21.25 14.0164 21.1401 14.5691 20.9265 15.0847C20.7129 15.6004 20.3999 16.0689 20.0052 16.4635C19.6106 16.8582 19.142 17.1712 18.6264 17.3848C18.1108 17.5984 17.5581 17.7083 17 17.7083C15.8728 17.7083 14.7918 17.2605 13.9948 16.4635C13.1978 15.6665 12.75 14.5855 12.75 13.4583C12.75 12.3311 13.1978 11.2501 13.9948 10.4531C14.7918 9.65608 15.8728 9.20831 17 9.20831ZM17 12.0416C16.6243 12.0416 16.2639 12.1909 15.9983 12.4566C15.7326 12.7223 15.5833 13.0826 15.5833 13.4583C15.5833 13.834 15.7326 14.1944 15.9983 14.46C16.2639 14.7257 16.6243 14.875 17 14.875C17.3757 14.875 17.7361 14.7257 18.0017 14.46C18.2674 14.1944 18.4167 13.834 18.4167 13.4583C18.4167 13.0826 18.2674 12.7223 18.0017 12.4566C17.7361 12.1909 17.3757 12.0416 17 12.0416Z" fill="#979797"/>
</svg>
