<svg width="26" height="27" viewBox="0 0 26 27" fill="none" xmlns="http://www.w3.org/2000/svg">
<g clip-path="url(#clip0_1_269)">
<path d="M17.1685 15.5818L16.3952 8.81288L9.6223 9.55104C9.55069 9.54937 9.47956 9.56309 9.41372 9.5913C9.34787 9.6195 9.28886 9.66152 9.24067 9.71452C9.19248 9.76751 9.15624 9.83024 9.1344 9.89846C9.11256 9.96667 9.10563 10.0388 9.11408 10.1099C9.12254 10.181 9.14618 10.2495 9.1834 10.3107C9.22062 10.3719 9.27055 10.4244 9.32982 10.4646C9.38909 10.5049 9.45631 10.5319 9.52693 10.5439C9.59755 10.5558 9.66992 10.5525 9.73914 10.5341L14.8153 9.98887L8.8438 17.4609C8.76101 17.5644 8.72277 17.6967 8.73748 17.8285C8.75219 17.9603 8.81865 18.0808 8.92224 18.1636C9.02583 18.2464 9.15806 18.2846 9.28985 18.2699C9.42164 18.2552 9.54219 18.1887 9.62498 18.0852L15.5965 10.6132L16.1839 15.6846C16.1991 15.8164 16.266 15.9368 16.3699 16.0193C16.4739 16.1018 16.6063 16.1396 16.7381 16.1244C16.8699 16.1092 16.9903 16.0423 17.0728 15.9383C17.1552 15.8344 17.193 15.7019 17.1779 15.5701L17.1685 15.5818Z" fill="#1E3A8A"/>
</g>
<defs>
<clipPath id="clip0_1_269">
<rect width="18" height="18" fill="white" transform="translate(11.2375 0.850586) rotate(38.6313)"/>
</clipPath>
</defs>
</svg>
